<svg width="61" height="68" viewBox="0 0 61 68" fill="none" xmlns="http://www.w3.org/2000/svg">
<g clip-path="url(#clip0)">
<g style="mix-blend-mode:multiply">
<g style="mix-blend-mode:multiply">
<path d="M47.1683 27.4432C43.703 27.439 40.3808 26.0599 37.9312 23.6088C35.4816 21.1578 34.1047 17.8351 34.1026 14.3698C34.1047 10.9052 35.4821 7.58287 37.932 5.13305C40.3818 2.68322 43.7037 1.30616 47.1683 1.30408C50.6336 1.30616 53.9567 2.68306 56.4077 5.13266C58.8588 7.58227 60.2375 10.9045 60.2417 14.3698C60.2375 17.8358 58.859 21.1587 56.4081 23.6096C53.9573 26.0605 50.6343 27.439 47.1683 27.4432ZM47.1683 6.80704C45.1626 6.80704 43.2391 7.60401 41.8208 9.02228C40.4025 10.4406 39.6056 12.364 39.6056 14.3698C39.6056 16.3763 40.4024 18.3005 41.8204 19.72C43.2385 21.1395 45.1618 21.9381 47.1683 21.9402C49.1755 21.9381 51.1 21.14 52.5193 19.7207C53.9386 18.3015 54.7366 16.377 54.7387 14.3698C54.7366 12.3633 53.938 10.4396 52.5185 9.02151C51.099 7.60347 49.1748 6.80704 47.1683 6.80704Z" fill="#FFAB11"/>
</g>
</g>
<g style="mix-blend-mode:multiply">
<g style="mix-blend-mode:multiply">
<path d="M28.7491 7.93902C30.8982 7.93902 32.6404 6.19679 32.6404 4.04763C32.6404 1.89848 30.8982 0.15625 28.7491 0.15625C26.5999 0.15625 24.8577 1.89848 24.8577 4.04763C24.8577 6.19679 26.5999 7.93902 28.7491 7.93902Z" fill="#502D8C"/>
</g>
</g>
<g style="mix-blend-mode:multiply">
<g style="mix-blend-mode:multiply">
<path d="M47.1761 14.3696H20.298V57.4657H47.1761V14.3696Z" fill="#00A5A5"/>
</g>
</g>
<g style="mix-blend-mode:multiply">
<g style="mix-blend-mode:multiply">
<path d="M10.5027 24.2986V54.4156L5.50297 57.5601V27.4431L10.5027 24.2986ZM16.0057 14.3698L0 24.3773V67.4732L16.0057 57.4657V14.3698Z" fill="#E61946"/>
</g>
</g>
</g>
<defs>
<clipPath id="clip0">
<rect width="60.2418" height="67.317" fill="white" transform="translate(0 0.15625)"/>
</clipPath>
</defs>
</svg>
