<svg width="55" height="43" viewBox="0 0 55 43" fill="none" xmlns="http://www.w3.org/2000/svg">
<g clip-path="url(#clip0)">
<g style="mix-blend-mode:multiply">
<g style="mix-blend-mode:multiply">
<path d="M28.2066 42.2581C22.7021 42.2518 17.4248 40.0627 13.5325 36.1705C9.64028 32.2782 7.45082 27.0009 7.44458 21.4964C7.45082 15.9919 9.64028 10.7146 13.5325 6.82234C17.4248 2.93008 22.7021 0.740617 28.2066 0.734375C33.7111 0.740617 38.9884 2.93008 42.8807 6.82234C46.7729 10.7146 48.9624 15.9919 48.9687 21.4964C48.9645 27.0015 46.7757 32.2801 42.883 36.1728C38.9903 40.0655 33.7117 42.2539 28.2066 42.2581ZM28.2066 6.23734C24.1616 6.24358 20.284 7.85324 17.4237 10.7135C14.5634 13.5738 12.9538 17.4514 12.9475 21.4964C12.9517 25.5421 14.5607 29.4205 17.4214 32.2812C20.2821 35.142 24.161 36.7509 28.2066 36.7551C32.2529 36.753 36.133 35.1447 38.9941 32.2836C41.8553 29.4224 43.4636 25.5427 43.4657 21.4964C43.4615 17.4508 41.8525 13.5719 38.9918 10.7112C36.1311 7.85049 32.2523 6.24151 28.2066 6.23734Z" fill="#E61946"/>
</g>
</g>
<g style="mix-blend-mode:multiply">
<g style="mix-blend-mode:multiply">
<path d="M41.1545 34.5698C37.6884 34.5656 34.3655 33.187 31.9146 30.7362C29.4638 28.2853 28.0848 24.9624 28.0807 21.4964C28.0869 18.0317 29.4667 14.7107 31.9173 12.2616C34.368 9.8124 37.6898 8.43482 41.1545 8.43066C44.6184 8.43482 47.9391 9.81256 50.3885 12.2619C52.8379 14.7113 54.2156 18.0324 54.2198 21.4964C54.2177 24.9617 52.8408 28.2843 50.3912 30.7354C47.9416 33.1865 44.6198 34.5656 41.1545 34.5698ZM41.1545 13.9336C39.1486 13.9357 37.2253 14.7328 35.8062 16.1504C34.3871 17.568 33.5878 19.4906 33.5837 21.4964C33.5857 23.5036 34.3842 25.428 35.8035 26.8473C37.2228 28.2666 39.1473 29.0647 41.1545 29.0668C43.1609 29.0647 45.0843 28.2661 46.5023 26.8466C47.9204 25.427 48.7168 23.5028 48.7168 21.4964C48.7147 19.4913 47.9175 17.5686 46.4997 16.1508C45.0818 14.733 43.1596 13.9357 41.1545 13.9336Z" fill="#FFAB11"/>
</g>
</g>
<g style="mix-blend-mode:multiply">
<g style="mix-blend-mode:multiply">
<path d="M9.14279 30.6391C14.1922 30.6391 18.2856 26.5457 18.2856 21.4963C18.2856 16.4469 14.1922 12.3535 9.14279 12.3535C4.09337 12.3535 0 16.4469 0 21.4963C0 26.5457 4.09337 30.6391 9.14279 30.6391Z" fill="#00A5A5"/>
</g>
</g>
</g>
<defs>
<clipPath id="clip0">
<rect width="54.22" height="41.5238" fill="white" transform="translate(0 0.734375)"/>
</clipPath>
</defs>
</svg>
