<svg width="60" height="51" viewBox="0 0 60 51" fill="none" xmlns="http://www.w3.org/2000/svg">
<g style="mix-blend-mode:multiply">
<g style="mix-blend-mode:multiply">
<path d="M59.7546 23.9556V36.7461C59.7546 38.6226 59.0094 40.422 57.6825 41.7489C56.3556 43.0758 54.5558 43.8213 52.6793 43.8213H49.3778V50.4248L40.0854 43.8213H27.5072C25.6307 43.8213 23.8312 43.0758 22.5044 41.7489C21.1775 40.422 20.4319 38.6226 20.4319 36.7461V23.9556C20.4319 22.0791 21.1775 20.2797 22.5044 18.9528C23.8312 17.6259 25.6307 16.8804 27.5072 16.8804H52.7031C54.5755 16.8866 56.3688 17.6347 57.6906 18.9609C59.0123 20.2871 59.7546 22.0832 59.7546 23.9556Z" fill="#00A5A5"/>
</g>
</g>
<g style="mix-blend-mode:multiply">
<g style="mix-blend-mode:multiply">
<path d="M10.3768 48.098V38.9157H9.82673C7.22043 38.9116 4.72227 37.8739 2.88008 36.0303C1.03788 34.1866 0.00207838 31.6876 0 29.0813V16.2908C0.00415792 13.6859 1.04079 11.1888 2.88276 9.34687C4.72473 7.50491 7.2218 6.46827 9.82673 6.46411H35.0223C37.6279 6.46619 40.1262 7.50215 41.9686 9.34457C43.811 11.187 44.847 13.6853 44.849 16.2908V29.0813C44.849 31.6883 43.8139 34.1885 41.9713 36.0326C40.1286 37.8767 37.6292 38.9136 35.0223 38.9157H23.3009L10.3768 48.098ZM9.82673 11.9356C8.68063 11.9377 7.58203 12.3938 6.77161 13.2042C5.9612 14.0147 5.50505 15.1133 5.50297 16.2594V29.0498C5.50297 30.1973 5.95829 31.2978 6.76893 32.11C7.57956 32.9221 8.67927 33.3792 9.82673 33.3813H15.8798V37.4064L21.5478 33.3813H35.0223C36.1698 33.3792 37.2695 32.9221 38.0801 32.11C38.8907 31.2978 39.3461 30.1973 39.3461 29.0498V16.2594C39.3461 15.1126 38.8906 14.0128 38.0797 13.2019C37.2689 12.3911 36.169 11.9356 35.0223 11.9356H9.82673Z" fill="#E61946"/>
</g>
</g>
<g style="mix-blend-mode:multiply">
<g style="mix-blend-mode:multiply">
<path d="M40.0769 23.6646C46.3898 23.6646 51.5074 18.547 51.5074 12.2342C51.5074 5.9213 46.3898 0.803711 40.0769 0.803711C33.764 0.803711 28.6465 5.9213 28.6465 12.2342C28.6465 18.547 33.764 23.6646 40.0769 23.6646Z" fill="#FFAB11"/>
</g>
</g>
</svg>
