<svg width="20" height="24" viewBox="0 0 20 24" fill="none" xmlns="http://www.w3.org/2000/svg">
<path d="M1.09375 20.2969L2.59375 16.4531C4.34375 18.2031 6.5 19.2031 9.0625 19.4531L7.51562 23.2969C7.29688 23.7656 6.96875 24 6.53125 24H6.48438C6.01562 24 5.67188 23.7969 5.45312 23.3906L4.46875 21.4219L2.35938 21.8438C1.89062 21.9062 1.53125 21.7656 1.28125 21.4219C0.9375 21.0781 0.875 20.7031 1.09375 20.2969ZM15.25 15.8438C15 16.3438 14.75 16.6562 14.5 16.7812C14.25 16.9062 13.8594 16.9688 13.3281 16.9688C12.7969 16.9375 12.4062 16.9531 12.1562 17.0156C11.9688 17.0781 11.6406 17.2656 11.1719 17.5781C10.7031 17.8594 10.3125 18 10 18C9.6875 18 9.29688 17.8594 8.82812 17.5781C8.35938 17.2656 8.03125 17.0781 7.84375 17.0156C7.625 16.9531 7.21875 16.9375 6.625 16.9688C6.03125 16.9688 5.65625 16.9062 5.5 16.7812C5.25 16.6562 4.98438 16.3438 4.70312 15.8438C4.45312 15.3125 4.26562 14.9844 4.14062 14.8594C4.01562 14.7344 3.6875 14.5469 3.15625 14.2969C2.65625 14.0156 2.34375 13.75 2.21875 13.5C2.09375 13.25 2.03125 12.8594 2.03125 12.3281C2.0625 11.7969 2.04688 11.4062 1.98438 11.1562C1.92188 10.9688 1.73438 10.6406 1.42188 10.1719C1.14062 9.70312 1 9.3125 1 9C1 8.6875 1.14062 8.29688 1.42188 7.82812C1.73438 7.35938 1.92188 7.03125 1.98438 6.84375C2.04688 6.625 2.0625 6.21875 2.03125 5.625C2.03125 5.03125 2.09375 4.65625 2.21875 4.5C2.34375 4.25 2.65625 4 3.15625 3.75C3.6875 3.46875 4.01562 3.26563 4.14062 3.14062C4.26562 3.01562 4.45312 2.70313 4.70312 2.20312C4.98438 1.67188 5.25 1.34375 5.5 1.21875C5.75 1.09375 6.14062 1.04687 6.67188 1.07812C7.20312 1.07812 7.59375 1.04687 7.84375 0.984375C8.03125 0.921875 8.35938 0.75 8.82812 0.46875C9.29688 0.15625 9.6875 0 10 0C10.3125 0 10.7031 0.15625 11.1719 0.46875C11.6406 0.75 11.9688 0.921875 12.1562 0.984375C12.375 1.04687 12.7812 1.07812 13.375 1.07812C13.9688 1.04687 14.3438 1.09375 14.5 1.21875C14.75 1.34375 15 1.67188 15.25 2.20312C15.5312 2.70313 15.7344 3.01562 15.8594 3.14062C15.9844 3.26563 16.2969 3.46875 16.7969 3.75C17.3281 4 17.6562 4.25 17.7812 4.5C17.9062 4.75 17.9531 5.14063 17.9219 5.67188C17.9219 6.20312 17.9531 6.59375 18.0156 6.84375C18.0781 7.03125 18.25 7.35938 18.5312 7.82812C18.8438 8.29688 19 8.6875 19 9C19 9.3125 18.8438 9.70312 18.5312 10.1719C18.25 10.6406 18.0781 10.9688 18.0156 11.1562C17.9531 11.375 17.9219 11.7812 17.9219 12.375C17.9531 12.9688 17.9062 13.3438 17.7812 13.5C17.6562 13.75 17.3281 14.0156 16.7969 14.2969C16.2969 14.5469 15.9844 14.7344 15.8594 14.8594C15.7344 14.9844 15.5312 15.3125 15.25 15.8438ZM7.32812 6.375C6.60938 7.09375 6.25 7.96875 6.25 9C6.25 10.0312 6.60938 10.9219 7.32812 11.6719C8.07812 12.3906 8.96875 12.75 10 12.75C11.0312 12.75 11.9062 12.3906 12.625 11.6719C13.375 10.9219 13.75 10.0312 13.75 9C13.75 7.96875 13.375 7.09375 12.625 6.375C11.9062 5.625 11.0312 5.25 10 5.25C8.96875 5.25 8.07812 5.625 7.32812 6.375ZM17.4062 16.4531L18.9062 20.2969C19.125 20.7031 19.0625 21.0781 18.7188 21.4219C18.4688 21.7656 18.1094 21.9062 17.6406 21.8438L15.5312 21.4219L14.5469 23.3906C14.3281 23.7969 13.9844 24 13.5156 24H13.4688C13.0312 24 12.7031 23.7656 12.4844 23.2969L10.8906 19.4531C13.4219 19.2344 15.5938 18.2344 17.4062 16.4531Z" fill="#06CDD0"/>
</svg>
