<svg width="30" height="24" viewBox="0 0 30 24" fill="none" xmlns="http://www.w3.org/2000/svg">
<path d="M29.9531 10.1719L30 10.3125C30 10.375 30 10.4219 30 10.4531C30 10.7656 29.8438 11 29.5312 11.1562L24.0469 13.4062C23.9219 13.4688 23.8281 13.5 23.7656 13.5C23.4219 13.5 23.1875 13.3438 23.0625 13.0312L19.0312 3.32812C19.0312 3.29687 19.0312 3.25 19.0312 3.1875L18.9844 3.04688C18.9844 2.67188 19.1406 2.4375 19.4531 2.34375L24.9375 0.046875C24.9688 0.046875 25.0312 0.03125 25.125 0H25.2188C25.5938 0 25.8281 0.15625 25.9219 0.46875L29.9531 10.1719ZM17.8125 4.3125L21.5156 13.1719L18.375 14.25C18.375 15.0312 18.125 15.7344 17.625 16.3594L19.875 23.0156V23.25C19.875 23.75 19.625 24 19.125 24H18.375C18 24 17.75 23.8281 17.625 23.4844L15.6562 17.5781C15.5938 17.5781 15.4844 17.5938 15.3281 17.625C15.1719 17.625 15.0625 17.625 15 17.625C14.9375 17.625 14.8281 17.625 14.6719 17.625C14.5156 17.5938 14.4062 17.5781 14.3438 17.5781L12.375 23.4844C12.25 23.8281 12 24 11.625 24H10.875C10.375 24 10.125 23.75 10.125 23.25V23.0156L12.375 16.3594L12.3281 16.3125L6.375 18.3281C5.875 18.5156 5.54688 18.3906 5.39062 17.9531L4.96875 16.9688L1.96875 18.1875C1.90625 18.25 1.8125 18.2812 1.6875 18.2812C1.40625 18.2812 1.17188 18.125 0.984375 17.8125L0.046875 15.5156L0 15.375C0 15.3125 0 15.2656 0 15.2344C0 14.9219 0.15625 14.6875 0.46875 14.5312L3.46875 13.3125L3.04688 12.3281C2.89062 11.8906 3.03125 11.5625 3.46875 11.3438L17.8125 4.3125ZM14.2031 15.0469C14.4219 15.2656 14.6875 15.375 15 15.375C15.3125 15.375 15.5781 15.2656 15.7969 15.0469C16.0156 14.8281 16.125 14.5625 16.125 14.25C16.125 13.9375 16.0156 13.6719 15.7969 13.4531C15.5781 13.2344 15.3125 13.125 15 13.125C14.6875 13.125 14.4219 13.2344 14.2031 13.4531C13.9844 13.6719 13.875 13.9375 13.875 14.25C13.875 14.5625 13.9844 14.8281 14.2031 15.0469Z" fill="#06CDD0"/>
</svg>
