<svg width="20" height="24" viewBox="0 0 20 24" fill="none" xmlns="http://www.w3.org/2000/svg">
<path d="M19.5 12.75V18C19.5 19.6562 18.9062 21.0625 17.7188 22.2188C16.5625 23.4062 15.1562 24 13.5 24H7.54688C6.48438 24 5.51562 23.75 4.64062 23.25L1.54688 21.6094C0.515625 20.9844 0 20.0938 0 18.9375V16.4531C0 15.4844 0.375 14.7031 1.125 14.1094L3 12.6094V16.125C3 16.375 3.125 16.5 3.375 16.5C3.625 16.5 3.75 16.375 3.75 16.125V2.25C3.75 1.625 3.96875 1.09375 4.40625 0.65625C4.84375 0.21875 5.375 0 6 0C6.625 0 7.15625 0.21875 7.59375 0.65625C8.03125 1.09375 8.25 1.625 8.25 2.25V8.8125C8.71875 8.4375 9.21875 8.25 9.75 8.25H10.5C11.3125 8.25 11.9375 8.59375 12.375 9.28125C12.6875 9.09375 13.0625 9 13.5 9H14.25C15.3125 9 16.0156 9.5 16.3594 10.5H16.5H17.25C17.875 10.5 18.4062 10.7188 18.8438 11.1562C19.2812 11.5938 19.5 12.125 19.5 12.75Z" fill="#06CDD0"/>
</svg>
