<svg width="22" height="25" viewBox="0 0 22 25" fill="none" xmlns="http://www.w3.org/2000/svg">
<path d="M1.15625 4.75C0.71875 4.625 0.5 4.375 0.5 4C0.5 3.625 0.71875 3.375 1.15625 3.25L10.0625 1.09375C10.6875 0.9375 11.3125 0.9375 11.9375 1.09375L20.8438 3.25C21.2812 3.375 21.5 3.625 21.5 4C21.5 4.375 21.2812 4.625 20.8438 4.75L17 5.6875V8.5C17 10.1562 16.4062 11.5781 15.2188 12.7656C14.0625 13.9219 12.6562 14.5 11 14.5C9.34375 14.5 7.92188 13.9219 6.73438 12.7656C5.57812 11.5781 5 10.1562 5 8.5V5.6875L2.5625 5.07812V7.5625C2.9375 7.78125 3.125 8.09375 3.125 8.5C3.125 8.84375 2.95312 9.15625 2.60938 9.4375L3.35938 12.3438C3.42188 12.7812 3.29688 13 2.98438 13H1.01562C0.703125 13 0.578125 12.7812 0.640625 12.3438L1.39062 9.4375C1.04688 9.15625 0.875 8.84375 0.875 8.5C0.875 8.09375 1.0625 7.78125 1.4375 7.5625V4.79688L1.15625 4.75ZM15.8281 15.6719C17.4844 16.2031 18.8438 17.1719 19.9062 18.5781C20.9688 19.9844 21.5 21.5781 21.5 23.3594C21.5 23.7969 21.3281 24.1719 20.9844 24.4844C20.6719 24.8281 20.2969 25 19.8594 25H2.14062C1.70312 25 1.3125 24.8281 0.96875 24.4844C0.65625 24.1719 0.5 23.7969 0.5 23.3594C0.5 21.5781 1.03125 19.9844 2.09375 18.5781C3.15625 17.1719 4.51562 16.2031 6.17188 15.6719L11 20.5L15.8281 15.6719Z" fill="#06CDD0"/>
</svg>
